<svg xmlns="http://www.w3.org/2000/svg" viewBox="0 0 16 16"><g fill="#106a90"><path d="m10.5 14.3-.5-.2c-.2 0-.2-.2-.2-.4s-.1-.1-.2-.2l-.1-.2-.3-.1c-.3 0-.2 0-.4-.2-.2-.1-.7-.3-.8-.5a4 4 0 0 0 1.9 2.9l.7-.7c.2 0 0-.3-.1-.4m3.9-.6-.5-.4c-.2-.1-.1-.4 0-.8.1-.3-.6-.5-.9-.6-.3-.1-.5-.3-1-.3-.2 0-.3 0-.5.2-.2.3-.6.2-.6.5-.1.2-.2.5.4.8.5.2.8.2.9.6 0 .5-.4 1.3 0 1.7.4.5 1.4-.4 1.5-.6l.7-.8c.2-.2.1-.3 0-.3" class="st1"/><path d="m14.9 9.2-.8.4c-.4 0-.8.1-.7.3v.6l.4-.1c0-.1.1.2-.2.2H13c-.3 0-.3.1-.3.3 0 .2-.2 0-.2-.2s0-.2-.3-.3c-.3-.1-.9 0-.4.4l.5.5h.5c.3 0 .5.3.7.4.2 0 .6.1.8.3s.2.7.3 1c.1.2.6.6.8.3.2-.4.3-.6.5-.6a4 4 0 0 0-1-3.5m-6.2 2.7.3-.5.6-.3.2-.3-.1-.1.1-.1.2.2c.1 0 .2.1.2-.3s-.5-.5-.7-.7l-.6-.4a4 4 0 0 0-.9 2.1l.4.3c.1.1.2.3.3.1m2-2.8.5.4s.1-.2 0-.4c0-.3.1-.3.2-.4l.7-.2c.1 0 .3-.2 0-.5-.6 0-1.1.1-1.6.3v.3c-.1.3 0 .4.2.5" class="st1"/></g><path fill="gray" d="M12 7a5 5 0 0 1 2 .4c.7-3.6-1-6.2-7-6.3C4 0 2.3 2.5 2.3 4.3l.3 3.4c0 1-1.3 1-1.3 0V6.4a1 1 0 0 0-.5-1l-.7 1s.2 0 .2.2v1c0 3.2 4 3.4 4.6.3h.7l.8 4.1H7a5 5 0 0 1 5-5z" class="st2"/><path d="M8.3.8c-.8 0-1.5.3-2 .9v4c.5.5 1.2.9 2 .9 1.5 0 2.8-1.3 2.8-3C11 2.2 9.8.9 8.3.9z" class="st3"/><circle cx="4.1" cy="4.1" r=".5" fill="#fff" class="st4"/><path fill="gray" d="M7.9 0c-.8 0-1.5.4-2 1v4.3c.5.5 1.2 1 2 1 1.4 0 2.7-1.5 2.7-3.2S9.4 0 7.9 0z" class="st2"/><path d="M7 12v-.6c-.4 0-.6.2-.6.6H7z" class="st3"/><circle cx="12" cy="12" r="4" fill="none" stroke="#000" stroke-width=".1" class="st0"/></svg>