<svg version="1.1" viewBox="0 0 16 16" xmlns="http://www.w3.org/2000/svg">
<g>
<path d="m2.884 5c-.552 0-1-.448-1-1v-3c0-.552.448-1 1-1s1 .448 1 1v3c0 .552-.448 1-1 1z"/>
<path d="m7.384 5c-.552 0-1-.448-1-1v-3c0-.552.448-1 1-1s1 .448 1 1v3c0 .552-.448 1-1 1z"/>
</g>
<path d="m11.555 15.86c2.455 0 4.445-1.99 4.445-4.445 0-1.122-.416-2.147-1.102-2.93-.761-.188-1.657-.303-2.716-.329-2.798-.812-4.242 1.219-4.242 2.798l.271 2.933c0 .902-1.173.857-1.173.045v-1.173c0-.541-.451-.767-.451-.767l-.587.722s.135 0 .135.271v.812c0 2.798 3.52 2.978 4.061.271h.632l.333 1.776h.005c.128.011.258.016.389.016z" fill="#808080"/>
<path d="m13.22 7.886c-.677 0-1.263.271-1.715.767v3.52c.451.451 1.038.767 1.715.767 1.354 0 2.437-1.128 2.437-2.527.044-1.399-1.084-2.527-2.437-2.527z"/>
<circle cx="9.61" cy="10.819" r=".451" fill="#fff"/>
<path d="m12.859 7.209c-.632 0-1.309.316-1.76.812v3.79c.451.496 1.128.812 1.76.812 1.263 0 2.346-1.218 2.346-2.707s-1.038-2.707-2.346-2.707z" fill="#808080"/>
<path d="m5.224 12.083.587-.722.189-.233v-1.798h-2v2.5c0 .477.141.919.374 1.299l.85-1.046z"/>
<path d="m9 3.419h-8c-.552 0-1 .448-1 1s.448 1 1 1v1.862c0 2.276 1.8 4.138 4 4.138.288 0 .569-.034.84-.094l.476-.586.472.236c.052-.027.104-.053.155-.083.016-.929.379-1.868 1.007-2.586.3-.343.652-.622 1.041-.837.003-.063.009-.124.009-.188v-1.862c.552 0 1-.448 1-1s-.448-1-1-1z" fill="#106a90"/>
</svg>