<svg width="24" height="24" version="1.1" xmlns="http://www.w3.org/2000/svg"><path d="m18.1 6.45v8.61c0 .904-.122 1.38-.326 1.76-.218.408-.553.743-.961.961-.38.204-.855.326-1.76.326h-8.62v1.4c0 .866.0886 1.18.26 1.5.166.313.421.569.734.734.317.17.631.26 1.5.26h10.6c.867 0 1.18-.0899 1.5-.26.313-.166.569-.422.734-.734.17-.316.26-.63.26-1.5v-10.6c0-.866-.0898-1.18-.26-1.5-.169-.316-.418-.566-.734-.734-.317-.17-.631-.26-1.5-.26z" fill="#00b77e"/><path d="m8.92 6.45c-.867 0-1.18.0888-1.5.26-.313.166-.569.422-.734.734-.17.316-.26.63-.26 1.5v6.11h8.61c-.0064-2.9-.0041-6.47-.002-8.6z" fill="#00b77e"/><path d="m15.1 2.01h-10.6c-.867 0-1.18.0899-1.5.26-.313.166-.569.421-.734.734-.171.316-.26.631-.26 1.5v10.6c0 .866.09 1.18.26 1.5.169.316.418.565.734.734.317.17.631.26 1.5.26h10.6c.867 0 1.18-.0899 1.5-.26.317-.169.566-.417.734-.734.17-.316.26-.631.26-1.5v-10.6c0-.866-.09-1.18-.26-1.5-.166-.313-.422-.568-.734-.734-.317-.171-.631-.26-1.5-.26zm-11.1 13.6v-11.7h11.7s-.0114 7.8 0 11.7z" clip-rule="evenodd" fill="#106a90" fill-rule="evenodd"/></svg>