<svg xmlns="http://www.w3.org/2000/svg" width="24" height="24"><path fill="#00b77e" d="M18.1 6.5V15c0 .9-.1 1.3-.3 1.7-.2.4-.6.8-1 1-.4.2-.8.3-1.7.3H6.4v1.4c0 .9.1 1.2.3 1.5.2.3.4.6.7.7.3.2.7.3 1.5.3h10.6c.9 0 1.2 0 1.5-.3.3-.1.6-.4.8-.7.1-.3.2-.6.2-1.5V9c0-.9 0-1.2-.2-1.5-.2-.3-.5-.6-.8-.7-.3-.2-.6-.3-1.5-.3z"/><path fill="#00b77e" d="M9 6.5c-1 0-1.3 0-1.6.2l-.7.7c-.2.4-.3.7-.3 1.5v6.2H15V6.5z"/><path fill="#106a90" fill-rule="evenodd" d="M15.1 2H4.5c-.9 0-1.2.1-1.5.3-.3.1-.6.4-.7.7-.2.3-.3.6-.3 1.5v10.6c0 .9.1 1.2.3 1.5.1.3.4.6.7.7.3.2.6.3 1.5.3h10.6c.9 0 1.2 0 1.5-.3.3-.1.6-.4.7-.7.2-.3.3-.6.3-1.5V4.5c0-.9-.1-1.2-.3-1.5-.1-.3-.4-.6-.7-.7-.3-.2-.6-.3-1.5-.3zM4 15.6V4h11.7v11.7z" clip-rule="evenodd"/></svg>