<svg xmlns="http://www.w3.org/2000/svg" viewBox="0 0 24 24"><g stroke-width="1.5"><path fill="#dce8f3" d="M6 0v2.7A1.8 1.8 0 0 1 7.5 2H12V0H6zm1.5 3.8V6H12V3.8H7.5z"/><path fill="#106a90" d="M7.5 6v6h3.4l.4-.5.4.5h.3V6H7.5z"/><path fill="#dce8f3" d="M0 6v6h2V6H0zm3.8 0v6h1.8V6H3.8z"/><path fill="#106a90" d="M1.5 0C.7 0 0 .7 0 1.5V6h2v-.4h1.8V6h1.8V3.8a1.8 1.8 0 0 1 .4-1V0H1.5z"/><path fill="#dce8f3" d="M18 0v2h2.2A1.8 1.8 0 0 1 22 3.8V6h2V1.5c0-.8-.7-1.5-1.5-1.5H18zm0 3.8V6h2.2V3.8H18z"/><path fill="#106a90" d="M18 6v6h2.2V6H18zm4 0v6h2V6h-2z"/><path fill="#dce8f3" d="M12 6v6h2.4l1.2-1.6 1.2 1.6H18V6h-6z"/><path fill="#106a90" d="M12 0v2h6V0h-6zm0 3.8V6h6V3.8h-6z"/><path fill="#dce8f3" d="M7.5 12v4.5H12v-1.8H8.8L11 12H7.5zm4.2 0 .3.3V12h-.3zM6 17.6v.4h.4a1.8 1.8 0 0 1-.4-.4z"/><path fill="#106a90" d="M6 18v2.2h6v-1.8H7.5a1.8 1.8 0 0 1-1.1-.4H6zm0 4v2h6v-2H6z"/><path fill="#dce8f3" d="M0 18v4.5c0 .8.7 1.5 1.5 1.5H6v-2H3.8A1.8 1.8 0 0 1 2 20.2V18H0zm3.8 0v2.2H6V18H3.8z"/><path fill="#106a90" d="M0 12v6h2v-6H0zm3.8 0v6H6v-.4a1.8 1.8 0 0 1-.4-1V12H3.8z"/><path fill="#dce8f3" d="M18 12v1.6l.8 1.1H18v1.8h2.2V12H18zm4 0v4.5a1.8 1.8 0 0 1-.7 1.5H24v-6h-2z"/><path fill="#106a90" d="M21.3 18a1.8 1.8 0 0 1-1.1.4H18v1.8h.4V22H18v2h4.5c.8 0 1.5-.7 1.5-1.5V18h-2.7z"/><path fill="#dce8f3" d="M12 18.4v1.8h6v-1.8h-6zm0 3.6v2h6v-2h-6z"/><path fill="#106a90" d="M12 12v.3l1.1 1.4 1.3-1.7H12zm4.8 0 1.2 1.6V12h-1.2zM12 14.7v1.8h6v-1.8h-6z"/></g></svg>