<svg enable-background="new 0 0 16 16" version="1.1" viewBox="0 0 24 24" xmlns="http://www.w3.org/2000/svg">
 <g stroke-width="1.5">
  <path d="m6 0v2.7383a1.8182 1.8182 0 0 1 1.4551-0.73828h4.5449v-2h-6zm1.4551 3.8184v2.1816h4.5449v-2.1816h-4.5449z" fill="#dce8f3"/>
  <path d="m7.4551 6v6h3.4883l0.375-0.48242 0.40039 0.48242h0.28125v-6h-4.5449z" fill="#106a90"/>
  <path d="m0 6v6h2v-6h-2zm3.8184 0v6h1.8184v-6h-1.8184z" fill="#dce8f3"/>
  <path d="m1.5 0c-0.825 0-1.5 0.675-1.5 1.5v4.5h2v-0.36328h1.8184v0.36328h1.8184v-2.1816a1.8182 1.8182 0 0 1 0.36328-1.0801v-2.7383h-4.5z" fill="#106a90"/>
  <path d="m18 0v2h2.1816a1.8182 1.8182 0 0 1 1.8184 1.8184v2.1816h2v-4.5c0-0.825-0.675-1.5-1.5-1.5h-4.5zm0 3.8184v2.1816h2.1816v-2.1816h-2.1816z" fill="#dce8f3"/>
  <path d="m18 6v6h2.1816v-6h-2.1816zm4 0v6h2v-6h-2z" fill="#106a90"/>
  <path d="m12 6v6h2.3926l1.207-1.5547 1.168 1.5547h1.2324v-6h-6z" fill="#dce8f3"/>
  <path d="m12 0v2h6v-2h-6zm0 3.8184v2.1816h6v-2.1816h-6z" fill="#106a90"/>
  <path d="m7.4551 12v4.5449h4.5449v-1.8184h-3.1816l2.125-2.7266h-3.4883zm4.2637 0 0.28125 0.33984v-0.33984h-0.28125zm-5.7188 5.625v0.375h0.37305a1.8182 1.8182 0 0 1-0.37305-0.375z" fill="#dce8f3"/>
  <path d="m6 18v2.1816h6v-1.8184h-4.5449a1.8182 1.8182 0 0 1-1.082-0.36328h-0.37305zm0 4v2h6v-2h-6z" fill="#106a90"/>
  <path d="m0 18v4.5c0 0.825 0.675 1.5 1.5 1.5h4.5v-2h-2.1816a1.8182 1.8182 0 0 1-1.8184-1.8184v-2.1816h-2zm3.8184 0v2.1816h2.1816v-2.1816h-2.1816z" fill="#dce8f3"/>
  <path d="m0 12v6h2v-6h-2zm3.8184 0v6h2.1816v-0.375a1.8182 1.8182 0 0 1-0.36328-1.0801v-4.5449h-1.8184z" fill="#106a90"/>
  <path d="m18 12v1.6387l0.81836 1.0879h-0.81836v1.8184h2.1816v-4.5449h-2.1816zm4 0v4.5449a1.8182 1.8182 0 0 1-0.73828 1.4551h2.7383v-6h-2z" fill="#dce8f3"/>
  <path d="m21.266 18a1.8182 1.8182 0 0 1-1.084 0.36328h-2.1816v1.8184h0.36328v1.8184h-0.36328v2h4.5c0.825 0 1.5-0.675 1.5-1.5v-4.5h-2.7344z" fill="#106a90"/>
  <path d="m12 18.363v1.8184h6v-1.8184h-6zm0 3.6367v2h6v-2h-6z" fill="#dce8f3"/>
  <path d="m12 12v0.33984l1.0996 1.3242 1.293-1.6641h-2.3926zm4.7676 0 1.2324 1.6387v-1.6387h-1.2324zm-4.7676 2.7266v1.8184h6v-1.8184h-6z" fill="#106a90"/>
 </g>
</svg>
