<svg enable-background="new 0 0 16 16" version="1.1" viewBox="0 0 16 16" xmlns="http://www.w3.org/2000/svg">
<path d="M8,4H4V0h4V4z" fill="#DCE8F3"/>
<path d="m4 4h4v4h-4v-4z" fill="#106a90"/>
<path d="M4,8V4H0v4H4z" fill="#DCE8F3"/>
<path d="m4 4h-4v-3c0-.55.45-1 1-1h3v4z" fill="#106a90"/>
<path d="m16 4h-4v-4h3c.55 0 1 .45 1 1v3z" fill="#DCE8F3"/>
<path d="m12 4h4v4h-4v-4z" fill="#106a90"/>
<path d="M12,8V4H8v4H12z" fill="#DCE8F3"/>
<path d="m12 4h-4v-4h4v4z" fill="#106a90"/>
<path d="M8,12H4V8h4V12z" fill="#DCE8F3"/>
<path d="m4 12h4v4h-4v-4z" fill="#106a90"/>
<path d="m4 16v-4h-4v3c0 .55.45 1 1 1h3z" fill="#DCE8F3"/>
<path d="m4 12h-4v-4h4v4z" fill="#106a90"/>
<path d="m16 12h-4v-4h4v4z" fill="#DCE8F3"/>
<path d="m12 12h4v3c0 .55-.45 1-1 1h-3v-4z" fill="#106a90"/>
<path d="m12 16v-4h-4v4h4z" fill="#DCE8F3"/>
<path d="m12 12h-4v-4h4v4z" fill="#106a90"/>
</svg>
