<svg version="1.1" viewBox="0 0 24 24" xmlns="http://www.w3.org/2000/svg">
<path d="m21.8 2s-.4-.4 0 0c-.1-.1-.1-.1 0 0-.1-.1-.1-.1 0 0-.1-.1-.1-.1 0 0-.4-.4-.9-.1-.9-.1s-7.5 5.5-7.4 5.5l-2 1.6h5.7c2.3-3 4.6-6.3 4.6-6.3s.3-.4 0-.7z" fill="#AEC8E0"/>
<path d="m9.2 16.7c.1 0 1.2-.6 1.2-.6l-1.4-4.6c-1 1.3-1.6 1.9-2 3.2l2.2 2z" fill="#AEC8E0"/>
<path d="m6.4 15c-5.6.5-3.2 5.4-6.4 7 4.2 0 8.5-.8 8.7-4.7-.1-.2-2.3-2.3-2.3-2.3z" fill="#00B066"/>
<g transform="translate(-105.57 -413.11)">
<path d="m129.6 425.1h-8v-8h5.9c1.1 0 2.1.6 2.1 1.7v6.3z" fill="#DCE8F3"/>
<path d="m121.6 425.1h-8v-6.3c0-1.1.9-1.7 2.1-1.7h5.9v8z" fill="#106a90"/>
<path d="m121.6 433.1v-8h-8v5.7c0 1.1.9 2.3 2.1 2.3h5.9z" fill="#DCE8F3"/>
<path d="m129.6 430.8v-5.7h-8v8h5.9c1.2 0 2.1-1.1 2.1-2.3z" fill="#106a90"/>
</g>
</svg>
