<svg xmlns="http://www.w3.org/2000/svg" viewBox="0 0 24 24"><path fill="#AEC8E0" d="M21.8 2s-.4-.4 0 0c-.1-.1-.1-.1 0 0-.1-.1-.1-.1 0 0-.1-.1-.1-.1 0 0-.4-.4-.9-.1-.9-.1l-7.4 5.5-2 1.6h5.7l4.6-6.3s.3-.4 0-.7zM9.2 16.7l1.2-.6L9 11.5c-1 1.3-1.6 1.9-2 3.2l2.2 2z"/><path fill="#00B066" d="M6.4 15c-5.6.5-3.2 5.4-6.4 7 4.2 0 8.5-.8 8.7-4.7L6.4 15z"/><path fill="#DCE8F3" d="M24 12h-8V4h6c1 0 2 .6 2 1.7V12z"/><path fill="#106a90" d="M16 12H8V5.7C8 4.6 9 4 10.1 4h6v8z"/><path fill="#DCE8F3" d="M16 20v-8H8v5.7c0 1 1 2.3 2.1 2.3h6z"/><path fill="#106a90" d="M24 17.7V12h-8v8h6c1.1 0 2-1.1 2-2.3z"/></svg>