<svg xmlns="http://www.w3.org/2000/svg" viewBox="0 0 16 16"><path fill="#B3B9BA" d="M2.9 5a1 1 0 0 1-1-1V1a1 1 0 0 1 2 0v3c0 .6-.5 1-1 1zm4.5 0a1 1 0 0 1-1-1V1a1 1 0 0 1 2 0v3c0 .6-.5 1-1 1z"/><path fill="#106a90" d="M11.6 15.9a4.4 4.4 0 0 0 3.3-7.4c-.8-.2-1.7-.3-2.7-.3-2.8-.9-4.3 1.2-4.3 2.8l.3 2.9c0 .9-1.2.8-1.2 0v-1.1c0-.6-.4-.8-.4-.8l-.6.7.1.3v.8c0 2.8 3.6 3 4.1.3h.6l.4 1.7h.4z"/><path fill="#0b4b65" d="M13.2 7.9c-.7 0-1.2.3-1.7.8v3.5c.5.4 1 .7 1.7.7 1.4 0 2.5-1 2.5-2.5C15.7 9 14.6 8 13.2 8z"/><circle cx="9.6" cy="10.8" r=".5" fill="#fff"/><path fill="#106a90" d="M12.9 7.2c-.7 0-1.4.3-1.8.8v3.8c.5.5 1.1.8 1.8.8 1.2 0 2.3-1.2 2.3-2.7s-1-2.7-2.3-2.7z"/><path fill="#B3B9BA" d="m5.2 12 .6-.6.2-.3V9.3H4v2.5c0 .5.1 1 .4 1.3l.8-1z"/><path fill="#FFCA28" d="M9 3.4H1a1 1 0 0 0 0 2v1.9a4 4 0 0 0 4 4.1h.8l.5-.7.5.3.1-.1a4 4 0 0 1 2-3.4l.1-.2V5.4a1 1 0 0 0 0-2z"/></svg>