<svg enable-background="new 0 0 16 16" version="1.1" viewBox="0 0 16 16" xmlns="http://www.w3.org/2000/svg">
<circle class="st0" cx="11.998" cy="12" r="3.999" fill="#dce8f3"/>
<g fill="#106a90">
<path class="st1" d="m10.499 14.3c-.133-.133-.267-.1-.5-.167s-.2-.267-.233-.433c-.033-.167-.1-.133-.2-.2-.067-.067-.067-.133-.067-.2-.033-.067-.067-.1-.3-.133s-.2 0-.433-.167c-.167-.1-.633-.333-.733-.5.1 1.133.866 2.3 1.832 2.9.233-.3.7-.6.766-.667.134-.1.001-.333-.132-.433"/>
<path class="st1" d="m14.364 13.667c-.133-.067-.267-.2-.5-.333-.2-.133-.067-.433.033-.8.1-.333-.6-.567-.866-.667-.3-.1-.566-.233-.966-.267-.3-.033-.4.033-.533.2-.2.267-.6.233-.666.467-.067.233-.167.533.4.8.566.267.8.233.9.667.1.467-.366 1.267.033 1.7.4.433 1.366-.433 1.533-.633s.5-.633.666-.8c.199-.201.099-.268-.034-.334"/>
<path class="st1" d="m14.863 9.233c-.167.1-.5.3-.8.367-.366.067-.733.1-.7.333.033.167-.1.433.1.533.067.033.233-.033.3-.1.067-.1.167.267-.167.267-.3.033-.466.067-.633.033-.267-.1-.233.067-.267.267-.033.2-.2-.1-.233-.233-.033-.167-.033-.233-.233-.3-.3-.1-.9.067-.466.4.4.333.433.467.566.5.167.033.233-.067.5-.033.267.033.5.333.666.4.167.067.633.167.766.333s.267.733.366.967c.1.267.6.667.8.333.2-.367.267-.567.5-.567.335-1.566-.598-3.166-1.065-3.5"/>
<path class="st1" d="m8.733 11.9c.133-.167.1-.333.267-.467.167-.133.466-.233.6-.367.167-.133.233-.167.167-.233-.1-.1-.133-.133-.1-.133.033-.033.167-.133.167-.133.033.033.1.2.2.267s.167.067.133-.367c-.035-.4-.468-.467-.668-.667-.1-.1-.466-.333-.566-.367-.5.567-.8 1.267-.9 2.067.033.033.3.267.333.3.134.133.234.267.367.1"/>
<path class="st1" d="m10.665 9.1c.167.167.466.333.5.367 0 .033.133-.133.067-.4-.033-.233.1-.267.2-.333s.533-.1.666-.2c.133-.067.333-.2-.067-.533-.5 0-1.033.1-1.499.267.033.1.067.2-.033.367-.1.232-.033.332.166.465"/>
<path class="st2" d="m11.998 7c.703 0 1.371.147 1.979.41.728-3.654-.909-6.178-6.891-6.324-3.207-.931-4.862 1.397-4.862 3.207l.31 3.362c0 1.034-1.345.983-1.345.052v-1.345c0-.621-.517-.879-.517-.879l-.672.827s.155 0 .155.31v.931c0 3.207 4.034 3.414 4.655.31h.724l.776 4.139h.69c0-2.757 2.242-5 4.998-5z"/>
</g>
<g>
<path class="st3" d="m8.276.776c-.776 0-1.448.31-1.966.879v4.035c.518.517 1.19.879 1.966.879 1.552 0 2.793-1.293 2.793-2.897.052-1.603-1.241-2.896-2.793-2.896z" fill="#0c4f6c"/>
<circle class="st4" cx="4.138" cy="4.138" r=".517" fill="#fff"/>
<path class="st2" d="m7.862 0c-.724 0-1.5.362-2.017.931v4.345c.517.569 1.293.931 2.017.931 1.448 0 2.69-1.397 2.69-3.103s-1.19-3.104-2.69-3.104z" fill="#106a90"/>
<path class="st3" d="m7 12c0-.207.017-.41.041-.61-.02-.002-.037-.011-.058-.011-.362 0-.621.259-.621.621h.638z" fill="#0c4f6c"/>
</g>
</svg>
