<svg width="32" height="32" version="1.1" viewBox="0 0 8.47 8.47" xmlns="http://www.w3.org/2000/svg">
<defs>
<radialGradient id="a" cx="43.13" cy="208.3" r="76.18" gradientTransform="matrix(.09 0 0 .09 223.8 204.6)" gradientUnits="userSpaceOnUse">
<stop stop-color="#fff" offset="0"/>
<stop stop-color="#106a90" offset="1"/>
</radialGradient>
</defs>
<g transform="translate(-224.56,-219.57)">
<circle cx="228.8" cy="223.8" r="4.23" fill="#fff" style="paint-order:normal"/>
<circle cx="228.8" cy="223.8" r="4.23" fill="url(#a)" opacity=".77" style="paint-order:normal"/>
<path d="m226.4 221.1-0.5604 0.3236-0.2073 0.3593-0.2776 0.6338-0.0424 0.4761 0.5402 0.3402 0.3055 0.7915 0.2973 0.0775 0.168 0.244 0.2352 0.0403 0.5692-0.2931 0.334-0.306 0.7108 0.1256 0.4632 0.3469 0.7372 0.0781 0.4699-0.3955 0.1603-0.5299 0.5366 0.0109 0.2032 0.0393 0.2518-0.0481 0.3976 0.1018 0.2306-0.2135 0.2001 0.06 0.1934-0.1453 0.0951-0.1882-0.2549-0.1701-0.1835-0.2766-0.2611-0.0982-0.3355-0.0739-0.1949-0.1587-0.2487 0.2207-0.4399 0.0703-0.4172-0.2285-0.5857-0.0222-0.5718-0.1634-0.3919 0.0605-0.0171-0.1727-0.2016-0.0553-7e-3 -0.2135-0.4844-0.0956-0.427 0.1665-0.1313-0.0594 0.0403-0.122-0.3598-0.0496-0.4782 0.105-0.1468-0.077 0.1804-0.3045zm5.004 4.096-0.3428 0.034-0.3836 0.5085-0.2103-0.4606-0.3708 0.0218 0.3453 0.7663-0.1057 0.1104-0.189 0.0257-0.0313 0.1834 0.2279-0.0147 0.1584-0.0645 0.1266-0.0966zm-3.117 0.1288 0.0946 1.094 0.2869 4e-3 -1.5e-4 -0.4688 0.1983-3e-3 0.3934 0.4683 0.3774-0.0147-0.5191-0.5988 0.5094-0.4872-0.4621 0.0121-0.3698 0.367-0.131 2e-3 -8e-3 -0.3714zm-2.034-0.135 0.4016 1.146 0.9656 0.0586 0.0879 0.2295 0.2585-4e-3 -0.0667-0.412-0.1804-6e-3 -0.1758-0.9068-0.334-0.0201 0.1891 0.9124-0.5431-0.0386-0.3029-0.9277z" fill="#106a90" stroke-linecap="round" stroke-linejoin="round" stroke-width=".1323" style="paint-order:fill markers stroke"/>
</g>
</svg>
