<?xml version="1.0" encoding="UTF-8"?>
<!-- Created with Inkscape (http://www.inkscape.org/) -->
<svg width="32" height="32" version="1.1" viewBox="0 0 8.4667 8.4667" xmlns="http://www.w3.org/2000/svg" xmlns:cc="http://creativecommons.org/ns#" xmlns:dc="http://purl.org/dc/elements/1.1/" xmlns:rdf="http://www.w3.org/1999/02/22-rdf-syntax-ns#" xmlns:xlink="http://www.w3.org/1999/xlink">
 <defs>
  <radialGradient id="radialGradient898" cx="43.126" cy="208.26" r="76.177" gradientTransform="matrix(.09031 0 0 .089011 223.76 204.63)" gradientUnits="userSpaceOnUse">
   <stop stop-color="#fff" offset="0"/>
   <stop stop-color="#106a90" offset="1"/>
  </radialGradient>
 </defs>
 <metadata>
  <rdf:RDF>
   <cc:Work rdf:about="">
    <dc:format>image/svg+xml</dc:format>
    <dc:type rdf:resource="http://purl.org/dc/dcmitype/StillImage"/>
    <dc:title/>
   </cc:Work>
  </rdf:RDF>
 </metadata>
 <g transform="translate(-224.58 -219.56)">
  <circle cx="228.82" cy="223.8" r="4.2333" fill="#fff" style="paint-order:normal"/>
  <circle cx="228.82" cy="223.8" r="4.2333" fill="url(#radialGradient898)" opacity=".769" style="paint-order:normal"/>
  <path d="m226.4 221.09c-0.0179 6.6e-4 -0.0389 9e-3 -0.0614 0.0259-0.0196 0.0149-0.083 0.0695-0.14078 0.12156-0.14472 0.13022-0.16657 0.1435-0.20364 0.12366-0.0253-0.0136-0.0353-0.0121-0.0716 0.0103-0.0524 0.0324-0.15597 0.14087-0.19686 0.20622-0.0304 0.0486-0.0417 0.0751-0.085 0.19974-0.0122 0.0352-0.0447 0.10131-0.0721 0.1468-0.0274 0.0455-0.0809 0.14465-0.11886 0.22033-0.064 0.12771-0.0706 0.14911-0.0919 0.29832-0.0126 0.0884-0.0352 0.2012-0.0503 0.25065-0.0294 0.0966-0.0265 0.13996 0.012 0.18215 0.0124 0.0136 0.0246 0.0358 0.027 0.0495 4e-3 0.0208 0.0202 0.0269 0.10496 0.039 0.1074 0.0153 0.14093 0.0281 0.18982 0.0725 0.017 0.0154 0.0699 0.0569 0.11746 0.0922 0.0476 0.0353 0.0933 0.0762 0.10157 0.091 8e-3 0.0148 0.0152 0.0585 0.0155 0.0971 6.4e-4 0.10145 0.0833 0.31066 0.14178 0.35888 0.0451 0.0372 0.0838 0.12239 0.0998 0.22004 0.0197 0.12012 0.0388 0.13351 0.22693 0.15892 0.10887 0.0147 0.13505 0.035 0.1935 0.15023 0.0474 0.0935 0.0843 0.13154 0.15031 0.15507 0.0569 0.0203 0.17809 0.0228 0.24186 5e-3 0.0613-0.017 0.0858-0.043 0.0763-0.0809-6e-3 -0.0257-2e-3 -0.0322 0.0319-0.044 0.0217-8e-3 0.0895-0.0381 0.15059-0.0678 0.0611-0.0298 0.12708-0.0541 0.14658-0.0541 0.0604 0 0.1025-0.0235 0.17305-0.0965 0.0404-0.0418 0.10569-0.0907 0.16076-0.12036 0.089-0.0479 0.0926-0.0516 0.0894-0.0911-3e-3 -0.0394-2e-3 -0.0408 0.0309-0.0323 0.0188 5e-3 0.0788 0.0133 0.1332 0.0186 0.3867 0.038 0.42347 0.0453 0.55528 0.11011 0.14485 0.0712 0.2273 0.1289 0.24299 0.17015 0.0111 0.0292 0.0622 0.0583 0.12601 0.0718 0.0217 5e-3 0.045 0.0246 0.0644 0.0554 0.0332 0.0526 0.042 0.0569 0.14267 0.0689 0.0374 4e-3 0.11253 0.0155 0.16694 0.0246 0.0544 9e-3 0.17216 0.0231 0.26165 0.0313l0.16271 0.0148 0.0635-0.0346c0.10504-0.0572 0.15017-0.10328 0.15435-0.15766 6e-3 -0.08 0.11237-0.17066 0.2197-0.18755 0.0279-4e-3 0.0552-0.0191 0.0698-0.0377 0.0273-0.0347 0.0637-0.21286 0.0637-0.31142-2e-5 -0.0554 4e-3 -0.0675 0.0309-0.0849 0.0209-0.0137 0.0335-0.0361 0.0388-0.0687 4e-3 -0.0266 0.0167-0.0532 0.0277-0.059 0.011-6e-3 0.14043-7e-3 0.28764-3e-3 0.23789 7e-3 0.27054 0.0105 0.29336 0.0312 0.0228 0.0206 0.0406 0.0225 0.15892 0.017 0.0832-4e-3 0.15055-0.0138 0.17926-0.0263 0.0646-0.0282 0.10072-0.0251 0.14545 0.0125 0.0322 0.0271 0.0539 0.0335 0.12771 0.0376 0.0489 3e-3 0.10702 0.014 0.12914 0.025 0.0532 0.0264 0.0926 9e-3 0.12579-0.0564 0.0285-0.0559 0.13235-0.14998 0.16564-0.1501 0.0124-5e-5 0.055 0.0179 0.0946 0.0399 0.0705 0.0391 0.073 0.0395 0.11395 0.02 0.023-0.011 0.0851-0.0543 0.13796-0.0964 0.0984-0.0782 0.14411-0.14754 0.14411-0.21865 0-0.0311-7e-3 -0.0361-0.20844-0.15672-0.057-0.0341-0.0691-0.0482-0.0868-0.1014-0.0255-0.0768-0.0878-0.16837-0.14304-0.21053-0.0456-0.0348-0.0648-0.0386-0.13053-0.0257-0.0389 8e-3 -0.0502 3e-3 -0.11128-0.0479-0.0815-0.0676-0.13776-0.085-0.23939-0.0743-0.0709 8e-3 -0.0793 6e-3 -0.12659-0.0288-0.0279-0.0203-0.0717-0.0625-0.0973-0.0938-0.0508-0.062-0.0805-0.0702-0.13058-0.0361-0.0513 0.0349-0.19051 0.16794-0.20399 0.19493-0.0106 0.0213-0.0294 0.0269-0.11748 0.0347-0.0576 5e-3 -0.14652 0.0154-0.19752 0.0228-0.051 7e-3 -0.10534 0.0135-0.12073 0.0136-0.0473 2.8e-4 -0.20485-0.0824-0.27391-0.1437-0.0804-0.0714-0.10528-0.0813-0.20433-0.0813-0.0429 0-0.10237-9e-3 -0.13213-0.0195-0.0652-0.0234-0.14948-0.0249-0.31193-6e-3 -0.11442 0.0137-0.12552 0.013-0.18239-0.0115-0.0512-0.022-0.18879-0.0484-0.25984-0.0497-0.011-2.1e-4 -0.0527-0.0226-0.0927-0.0498-0.0821-0.0558-0.11141-0.0599-0.18325-0.0254-0.0383 0.0184-0.0826 0.025-0.18629 0.0278l-0.13604 4e-3 -9.4e-4 -0.0433c-2e-3 -0.0783-0.0152-0.10734-0.0595-0.12836-0.0232-0.011-0.0589-0.02-0.0794-0.02-0.0266 0-0.0466-0.0112-0.0702-0.0392-0.0302-0.0359-0.0323-0.0451-0.0247-0.11054l8e-3 -0.0713-0.0784-0.0362c-0.0444-0.0205-0.11061-0.0394-0.15272-0.0435-0.0409-4e-3 -0.0986-0.0159-0.12832-0.0264-0.10174-0.0359-0.21162-0.0199-0.21162 0.0308 0 0.0197-8e-3 0.0243-0.0448 0.0243-0.025 0-0.0888 0.0199-0.14439 0.045-0.11461 0.0517-0.16515 0.0556-0.2483 0.0188l-0.0591-0.0262 0.0237-0.0343c0.0411-0.0593 0.0422-0.0756 7e-3 -0.0987-0.0395-0.0259-0.31463-0.038-0.39335-0.0174-0.1629 0.0427-0.39797 0.10004-0.41115 0.10023-8e-3 1.1e-4 -0.0154-8e-3 -0.0154-0.0183 0-0.0334-0.0471-0.068-0.0927-0.068-0.0491 0-0.054-0.0111-0.019-0.0429 0.0133-0.0121 0.0306-0.0421 0.0384-0.0668 8e-3 -0.0247 0.0363-0.0829 0.0635-0.1294l0.0494-0.0845-0.0267-0.0285c-0.0213-0.0227-0.0251-0.0373-0.0186-0.0719 0.0113-0.0604-0.0124-0.0958-0.0516-0.0944zm3.0942 4.1073c-0.037 0-0.0761 1e-3 -0.1147 4e-3 -0.14013 0.0102-0.098-0.0211-0.37322 0.27718-0.19206 0.20817-0.24113 0.2395-0.30372 0.19373-0.0198-0.0145-0.0235-0.0432-0.0302-0.23804l-8e-3 -0.22153-0.12211-0.01c-0.0672-5e-3 -0.15064-5e-3 -0.18548 5e-5l-0.0634 0.0101-4e-3 0.0865c-5e-3 0.0986 0.015 0.4596 0.0415 0.76039 0.0236 0.26781 0.0282 0.29419 0.0532 0.30079 0.0314 8e-3 0.23962 9e-3 0.26989 8.4e-4 0.0255-7e-3 0.0271-0.0163 0.0356-0.21622l9e-3 -0.20907h0.1674l0.14095 0.15767c0.0775 0.0867 0.1622 0.18408 0.18819 0.21638l0.0473 0.0587 0.16851-2e-4c0.18503-2.1e-4 0.20998-6e-3 0.18808-0.0474-0.0164-0.0307-0.17591-0.2325-0.31242-0.3953-0.0531-0.0634-0.0966-0.12536-0.0966-0.13776 0-0.0126 0.1119-0.13783 0.25349-0.28371 0.13942-0.14363 0.25349-0.26871 0.25349-0.27796 0-0.0175-0.092-0.0292-0.20306-0.0292zm-2.1262 1e-3c-0.029 2.1e-4 -0.0575 2e-3 -0.082 5e-3l-0.0804 0.01-4e-3 0.0586c-5e-3 0.0755 0.0193 0.21791 0.0984 0.57956 0.0351 0.16059 0.0604 0.30108 0.0561 0.31222-7e-3 0.0177-0.0353 0.0202-0.22765 0.0201-0.12093-9e-5 -0.23191-3e-3 -0.24666-7e-3 -0.0169-5e-3 -0.036-0.0285-0.0516-0.0649-0.0371-0.0862-0.13254-0.41199-0.19327-0.65957-0.0295-0.12034-0.0573-0.22466-0.0617-0.23183-5e-3 -8e-3 -0.0648-0.013-0.15335-0.013h-0.14528l9e-3 0.0834c0.0199 0.18158 0.20618 0.74173 0.3254 0.97848 0.0525 0.10425 0.0346 0.10007 0.4285 0.10025 0.16045 7e-5 0.35941 4e-3 0.44211 8e-3l0.15037 8e-3 0.0258 0.0877c0.0142 0.0483 0.0338 0.10029 0.0435 0.11559 0.0165 0.0258 0.0267 0.0278 0.14112 0.0278h0.12337v-0.0525c0-0.0834-0.0488-0.35979-0.0653-0.37032-8e-3 -5e-3 -0.0438-0.01-0.0789-0.01-0.0843-2.5e-4 -0.0995-7e-3 -0.11445-0.0539-0.0193-0.0598-0.0695-0.34405-0.11168-0.63263-0.0209-0.14281-0.0403-0.26611-0.0432-0.27399-5e-3 -0.0148-0.0974-0.0253-0.18448-0.0247zm3.8573 3e-3c-0.0274 2.5e-4 -0.0547 2e-3 -0.075 4e-3 -0.0841 9e-3 -0.0431-0.0347-0.31386 0.33401-0.12203 0.16619-0.15148 0.19443-0.16607 0.15924-4e-3 -8e-3 -0.0346-0.0836-0.0691-0.16679-0.0345-0.0832-0.0823-0.19037-0.10634-0.23804l-0.0436-0.0867h-0.17954c-0.21511 0-0.21667 1e-3 -0.14879 0.12202 0.13767 0.24489 0.31627 0.64945 0.31627 0.71637 0 0.0723-0.10698 0.15048-0.20631 0.15074-0.0511 1.3e-4 -0.0872 0.0225-0.10129 0.0629-0.0159 0.0457-0.0182 0.10178-5e-3 0.11582 5e-3 5e-3 0.0599 7e-3 0.12165 4e-3 0.24124-0.0123 0.34257-0.0996 0.8215-0.708 0.22693-0.28829 0.30883-0.40475 0.30883-0.43916 0-0.0169-0.0152-0.0224-0.0773-0.0277-0.0212-2e-3 -0.0489-3e-3 -0.0763-2e-3z" fill="#106a90" style="paint-order:normal"/>
 </g>
</svg>
