<svg xmlns="http://www.w3.org/2000/svg" width="32" height="32" viewBox="0 0 8.47 8.47"><defs><radialGradient id="a" cx="43.13" cy="208.26" r="76.18" gradientTransform="matrix(.09 0 0 .09 223.76 204.63)" gradientUnits="userSpaceOnUse"><stop offset="0" stop-color="#fff"/><stop offset="1" stop-color="#106a90"/></radialGradient></defs><g transform="translate(-224.58 -219.56)"><circle cx="228.82" cy="223.8" r="4.23" fill="#fff" style="paint-order:normal"/><circle cx="228.82" cy="223.8" r="4.23" fill="url(#a)" opacity=".77" style="paint-order:normal"/><path fill="#106a90" d="M226.4 221.09c-.02 0-.04 0-.06.03l-.14.12c-.15.13-.17.14-.2.12-.03-.01-.04-.01-.08.01a.88.88 0 0 0-.2.2.82.82 0 0 0-.08.2 4.11 4.11 0 0 0-.2.37.7.7 0 0 0-.08.3l-.05.25c-.03.1-.03.14.01.19l.03.05c0 .02.02.02.1.03.1.02.14.03.2.08l.1.09c.06.03.1.08.11.09l.02.1c0 .1.08.3.14.36.04.03.08.12.1.22.02.12.04.13.22.15.11.02.14.04.2.15.05.1.08.14.15.16.06.02.18.02.24 0 .06-.01.09-.04.08-.08-.01-.02 0-.03.03-.04l.15-.07a.57.57 0 0 1 .15-.05c.06 0 .1-.03.17-.1.04-.04.1-.09.16-.12.09-.05.1-.05.09-.09 0-.04 0-.04.03-.03l.13.02c.39.03.43.04.56.1.14.08.23.14.24.18.01.03.06.06.13.07.02 0 .04.02.06.05.03.06.04.06.14.07l.17.03.26.03.17.01.06-.03c.1-.06.15-.1.15-.16 0-.08.12-.17.22-.19.03 0 .06-.02.07-.03a.84.84 0 0 0 .07-.32c0-.05 0-.06.03-.08.02-.01.03-.04.04-.07l.02-.06h.3c.23 0 .26.01.28.03.03.02.05.02.16.02.09 0 .15-.02.18-.03.07-.03.1-.02.15.01.03.03.05.04.13.04.05 0 .1.02.13.03.05.02.09 0 .12-.06s.13-.15.17-.15l.1.04c.06.04.06.04.1.02.03-.01.09-.05.14-.1.1-.08.15-.14.15-.22 0-.03-.01-.03-.21-.15-.06-.04-.07-.05-.09-.1a.5.5 0 0 0-.14-.21c-.05-.04-.07-.04-.13-.03-.04 0-.05 0-.11-.05a.27.27 0 0 0-.24-.07c-.07 0-.08 0-.13-.03a.64.64 0 0 1-.1-.1c-.05-.06-.08-.06-.13-.03s-.19.17-.2.2c-.01.02-.03.02-.12.03a4.2 4.2 0 0 0-.32.04.72.72 0 0 1-.27-.15c-.08-.07-.1-.08-.2-.08-.05 0-.1 0-.14-.02a.7.7 0 0 0-.3 0c-.12 0-.13 0-.2-.02a.97.97 0 0 0-.25-.05.34.34 0 0 1-.1-.05c-.08-.05-.1-.06-.18-.02a.45.45 0 0 1-.18.03h-.14v-.04c0-.08-.02-.11-.06-.13a.22.22 0 0 0-.08-.02c-.03 0-.05-.01-.07-.04-.03-.04-.03-.05-.02-.11v-.07l-.07-.04a.56.56 0 0 0-.16-.04.66.66 0 0 1-.13-.03c-.1-.03-.2-.02-.2.03 0 .02-.01.03-.05.03a.5.5 0 0 0-.15.04c-.11.05-.16.06-.24.02l-.06-.03.02-.03c.04-.06.04-.08 0-.1a1.08 1.08 0 0 0-.39-.02 9.45 9.45 0 0 1-.42.09c0-.04-.05-.07-.1-.07-.04 0-.05-.01-.01-.05a.18.18 0 0 0 .03-.06l.07-.13.05-.09-.03-.02c-.02-.03-.02-.04-.02-.08.01-.06-.01-.1-.05-.1zm3.1 4.1-.12.01c-.14.01-.1-.02-.37.28-.2.2-.24.24-.3.2-.03-.02-.03-.05-.04-.25v-.22h-.38v.09a9.08 9.08 0 0 0 .1 1.06h.26c.03 0 .03-.01.04-.21v-.21h.18l.14.15.19.22.04.06h.17c.19 0 .21 0 .19-.05a6.39 6.39 0 0 0-.41-.53l.25-.29.26-.27c0-.02-.1-.03-.2-.03zm-2.13 0-.08.01-.08.01v.06c-.01.08.01.22.09.58l.06.31c-.01.02-.04.02-.23.02h-.25c-.02 0-.03-.03-.05-.07a6.72 6.72 0 0 1-.25-.89l-.16-.01h-.14v.08c.03.18.21.74.33.98.05.1.04.1.43.1h.44l.15.02.03.08.04.12c.02.02.03.03.14.03h.13v-.06c0-.08-.05-.36-.07-.37h-.08c-.08 0-.1-.01-.11-.06a7.41 7.41 0 0 1-.16-.9c0-.02-.1-.03-.18-.03zm3.86.01h-.08c-.08.01-.04-.03-.31.34-.13.17-.16.2-.17.16l-.07-.17a4.53 4.53 0 0 0-.1-.24l-.05-.08h-.18c-.21 0-.21 0-.15.12.14.24.32.65.32.72 0 .07-.1.15-.2.15-.06 0-.1.02-.1.06-.02.04-.03.1-.01.11h.12c.24 0 .34-.1.82-.7.23-.29.3-.4.3-.44 0-.02 0-.02-.07-.03h-.07z" style="paint-order:normal"/></g></svg>