<svg version="1.1" viewBox="0 0 24 24" xmlns="http://www.w3.org/2000/svg"><g transform="matrix(1.3 0 0 1.3 -2.442 -7.429)" stroke-width=".5"><path d="m10.36 20.11-3-1.055v-5.945l3 1.055m2.75-2.055h-0.08l-2.67 1.05-3-1.05-2.82 0.95c-0.105 0.035-0.18 0.125-0.18 0.24v7.56a0.25 0.25 0 0 0 0.25 0.25c0.025 0 0.055 0 0.08-0.015l2.67-1.035 3 1.05 2.82-0.95c0.105-0.05 0.18-0.125 0.18-0.24v-7.56a0.25 0.25 0 0 0-0.25-0.25z" fill="#106a90"/><path d="m14.86 9.786-3 1.055v5.945l3-1.055m2.75 2.055h-0.08l-2.67-1.05-3 1.05-2.82-0.95c-0.105-0.035-0.18-0.125-0.18-0.24v-7.56a0.25 0.25 0 0 1 0.25-0.25c0.025 0 0.055 0 0.08 0.015l2.67 1.035 3-1.05 2.82 0.95c0.105 0.05 0.18 0.125 0.18 0.24v7.56a0.25 0.25 0 0 1-0.25 0.25z" fill="#00b77e"/></g></svg>
