<svg width="24" height="24" version="1.1" viewBox="0 0 24 24" xmlns="http://www.w3.org/2000/svg">
<path d="m12 1.7893a10.211 10.211 0 00-10.211 10.211 10.211 10.211 0 0010.211 10.211 10.211 10.211 0 0010.211-10.211 10.211 10.211 0 00-10.211-10.211zm0 .58776a9.6229 9.6229 0 019.6229 9.6229 9.6229 9.6229 0 01-9.6229 9.6229 9.6229 9.6229 0 01-9.6229-9.6229 9.6229 9.6229 0 019.6229-9.6229zm0 7.9247c-.26461-4e-6-.52926.08813-.70567.26454l-3.0909 3.0909c-.10081.1008-.10081.30244 0 .40324.10081.1008.30244.1008.40324 0l3.0909-3.0909c.15121-.15121.45365-.15121.60487 0l3.0909 3.0909c.1008.1008.30245.1009.40324 9.1e-5.10079-.10082.10079-.30245 0-.40324l-3.0909-3.0909c-.17641-.17641-.44106-.26462-.70567-.26463z" fill-rule="evenodd" stroke-width="1.2763"/>
</svg>
