<svg version="1.1" viewBox="0 0 85 24.82" xmlns="http://www.w3.org/2000/svg">
<path d="m4.185 12.41 4.185-12.41h3.861l-1.736 5.195c-.9548 2.857-1.736 5.229-1.736 5.27 0 .04122 2.162.04416 4.805.0068l4.805-.06808 1.462-4.387h1.483c.8158 0 1.483.1046 1.483.2325s-.3221 1.143-.7161 2.256l-.7161 2.024h3.145l1.46-4.387 3.059-.1483-1.965 5.715c-1.081 3.143-2.086 6.025-2.232 6.404-.2465.6367-.3727.6894-1.652.6894-.7617 0-1.385-.08432-1.385-.1874 0-.1031.3502-1.238.778-2.523.4279-1.284.7381-2.371.6894-2.414-.04887-.04314-.7196-.1284-1.491-.1896l-1.402-.1111-1.739 5.299-1.426.07518c-1.073.05657-1.426-.0093-1.426-.2663 0-.1878.3383-1.343.752-2.566.4135-1.224.752-2.317.752-2.429 0-.112-2.129-.2037-4.731-.2037h-4.731l-1.966 5.766-1.966 5.766h-3.887zm5.579 11.85c-1.713-.8723-1.797-1.527-.6564-5.086l.9239-2.882h1.619c.8907 0 1.619.09516 1.619.2114 0 .1163-.2257.8672-.5014 1.669-.5715 1.661-.6357 2.648-.2006 3.083.2184.2184 2.065.3008 6.735.3008 6.151 0 6.463-.02295 7.101-.5251.3672-.2888.8736-.9374 1.126-1.441.252-.504 1.831-5.118 3.51-10.25l3.052-9.338h34.31l-1.117 3.134-30.66.1292-3.06 9.211c-1.683 5.066-3.295 9.639-3.583 10.16-.2877.5238-.9222 1.201-1.41 1.504-.8612.5356-1.131.5537-9.285.6231-8.321.0708-8.408.06621-9.523-.5014zm23.38-1.012.5584-1.567 37.35-.1285 6.094-18.3h-3.07c-1.689 0-3.135-.06494-3.215-.1443-.07948-.07935.0816-.8126.3574-1.629l.5015-1.485h13.27l-.1785.564c-.0982.3102-.3838 1.043-.6347 1.629l-.4562 1.065h-2.915l-7.256 21.55-40.97.0058.5584-1.567zm1.681-4.763c-.001-.1723.915-3.049 2.036-6.392l2.037-6.079h2.662l-2.433 7.263 2.042-2.19c4.727-5.07 4.731-5.073 6.044-5.073 1.015 0 1.165.06303 1.045.4387-.07692.2413-1.025 3.09-2.105 6.33l-1.965 5.891-1.421.07518c-.7815.04122-1.421-.01955-1.421-.1358 0-.116.5065-1.721 1.125-3.566.619-1.846 1.088-3.393 1.043-3.438-.04547-.04543-1.198 1.131-2.561 2.614-4.21 4.581-4.206 4.577-5.218 4.577-.5574 0-.9076-.1207-.9088-.3134zm12.34 0c.0612-.1723 1.047-3.049 2.191-6.392l2.08-6.079h1.22c.8704 0 1.22.09919 1.22.3459 0 .1903-.509 1.798-1.131 3.572l-1.131 3.226 6.9-7.15 1.218.0028c1.026.0023 1.193.06775 1.06.4146-.0867.2265-1.072 3.103-2.19 6.392l-2.032 5.981h-1.347c-.9779 0-1.347-.09473-1.347-.3459 0-.1903.5106-1.785 1.135-3.545.6241-1.759 1.09-3.243 1.036-3.297-.0544-.05432-1.484 1.4-3.178 3.231-1.693 1.832-3.253 3.471-3.465 3.643-.2125.1723-.8283.3134-1.368.3134-.6776 0-.9472-.09707-.8703-.3134zm12.48.000102c0-.1723.9118-3.049 2.026-6.392l2.026-6.079h1.233c.8401 0 1.233.1031 1.233.3238 0 .1781-.4956 1.801-1.101 3.608l-1.101 3.284 1.784-1.915c4.778-5.128 4.981-5.3 6.283-5.3 1.018 0 1.168.0629 1.048.4387-.07693.2413-1.025 3.09-2.105 6.33l-1.965 5.891-1.421.07518c-.7815.04122-1.421-.01955-1.421-.1358 0-.116.5065-1.721 1.125-3.566.619-1.846 1.087-3.394 1.039-3.442-.0476-.0476-1.305 1.241-2.794 2.865-3.864 4.213-4 4.33-5.015 4.33-.5315 0-.8734-.1227-.8734-.3133zm-46.63-10.79c0-.4233 1.854-5.415 2.248-6.053.9593-1.552 1.447-1.642 8.875-1.642h6.66l-1.116 3.134-5.664.1253c-4.042.08946-5.773.2162-6.045.4428-.21.1746-.6897 1.162-1.066 2.193l-.6842 1.876h-1.604c-.8822 0-1.604-.03442-1.604-.07607z" fill="#fff" stroke-width=".2507"/>
</svg>
