<svg version="1.1" viewBox="0 0 85 24.818" xmlns="http://www.w3.org/2000/svg">
 <g></g>
 <path d="m8.3691 0-8.3887 24.818h3.8613l3.8984-11.531h9.6328l-1.7656 5.2227h3.0781l1.7656-5.2227h3.1035l-1.7656 5.2227h3.0078l4.2324-12.516h-3.0098l-1.5273 4.5176h-3.1035l1.5273-4.5176h-3.0781l-1.5273 4.5176h-9.6328l3.5527-10.512h-3.8613zm10.486 0c-3.0091 0-4.3379 3.2637-4.3379 3.2637l-1.498 4.4316h3.2344l0.57422-1.7012 0.46094-1.3594c0.45959-1.3597 1.9609-1.3711 1.9609-1.3711h1.5117 9.1895l1.1035-3.2637h-9.1914-3.0078zm18.871 0s-3.8152 0.53289-4.7383 3.2637l-0.92188 2.7305-4.7676 14.104s-0.53572 1.5859-2.3535 1.5859h-1.8184-8.5918-1.5117s-1.4974 0.0012-0.96094-1.5859l0.53516-1.5879 0.75-2.2148h-3.2344l-1.8223 5.3887s-0.83331 3.1348 2.1758 3.1348h3.0078 12.229s3.6224 0.03951 4.6953-3.1348l1.0723-3.1738 1.7656-5.2227 2.9238-8.6523s0.27014-1.3711 1.9922-1.3711h1.7227 27.428l1.1035-3.2637h-30.68zm34 0-1.1035 3.2637h6.5273l-6.2266 18.42h-37.275l-1.0605 3.1348h40.971l7.2852-21.555h3.0527l1.1035-3.2637h-13.273zm-32.775 5.9941-4.2305 12.516h2.6191l6.5566-7.293-2.4648 7.293h2.9316l4.2305-12.516h-2.9316l-6.5566 7.293 2.4648-7.293h-2.6191zm12.498 0-4.2305 12.516h2.6172l6.5586-7.293-2.4648 7.293h2.9316l4.2305-12.516h-2.9316l-6.5586 7.293 2.4648-7.293h-2.6172zm12.258 0-4.2305 12.516h2.6191l6.5586-7.293-2.4668 7.293h2.9316l4.2305-12.516h-2.9316l-6.5566 7.293 2.4648-7.293h-2.6191z" fill="#fff"/>
</svg>
