<svg version="1.1" viewBox="-467 269 24 24" xmlns="http://www.w3.org/2000/svg">
<path d="m-461 283v4.3c0 1.1 1.4 1.7 2.5 1.7h4.5" fill="none" stroke="#B1B2B2" stroke-miterlimit="10" stroke-width="2"/>
<path d="m-443 284c0 4.4-3.5 7.9-8 7.9s-8-4.1-8-7.8c.1-4.4 3.5-8.1 8-8.1 4.4.1 8 3.6 8 8z" fill="#DCE8F3"/>
<path d="m-449.1 290.2c.5-.7 1.1-1.7 1.5-3h2.3c-.8 1.3-2.1 2.5-3.8 3zm-7.7-3h2.3c.4 1.3 1 2.3 1.5 3-1.6-.5-3-1.7-3.8-3zm-.6-5.4h2.5c-.1.7-.2 1.3-.2 2s.1 1.3.2 2h-2.5c-.2-.7-.3-1.3-.3-2s.1-1.3.3-2zm4.4-4.3c-.5.7-1.1 1.7-1.5 3h-2.3c.8-1.4 2.2-2.6 3.8-3zm7.8 3h-2.3c-.4-1.3-1-2.3-1.5-3 1.5.4 2.9 1.6 3.8 3zm-5.8-3.4s1.3 1.3 2 3.3h-4.1c.8-1.9 2.1-3.3 2.1-3.3zm-2.5 8.7c-.1-.7-.2-1.3-.2-2s.1-1.3.2-2h4.9c.1.7.2 1.3.2 2s-.1 1.3-.2 2h-4.9zm2.5 4.7c-.2-.2-1.3-1.3-2-3.3h4c-.7 2-1.8 3.1-2 3.3zm6.3-4.7h-2.5c.1-.7.2-1.3.2-2s-.1-1.3-.2-2h2.5c.2.7.3 1.3.3 2s-.1 1.4-.3 2zm1.7-1.9c0-4.4-3.6-8.1-8-8.1s-8 3.7-8 8.1c0 4.3 3.4 7.9 7.7 8.1h.7c4.2-.2 7.6-3.7 7.6-8.1z" fill="#106a90"/>
<path d="m-462 276.4c0 .3-.6.7-1 .7s-1-.3-1-.7v-4.8c0-.3.6-.7 1-.7s1 .3 1 .7v4.8z" fill="#B1B2B2"/>
<path d="m-457 276.4c0 .3-.6.7-1 .7s-1-.3-1-.7v-4.8c0-.3.6-.7 1-.7s1 .3 1 .7v4.8z" fill="#B1B2B2"/>
<path d="m-466 276v3.8c0 2.8 2.7 5.2 5.5 5.2s5.5-2.3 5.5-5.2v-3.5c0-.4-.8-1.3-1.2-1.3h-9c-.2 0-.8.6-.8 1z" fill="#FFCA28"/>
<rect x="-466" y="276" width="11" height="2" enable-background="new" opacity=".18"/>
<path d="m-455.3 277h-10.8c-.6 0-.9-.5-.9-1s.3-1 .9-1h10.9c.5 0 .9.5.9 1 0 .4-.4 1-1 1z" fill="#FFCA28"/>
</svg>
