<svg version="1.1" viewBox="-467 269 24 24" xmlns="http://www.w3.org/2000/svg">
<path d="m-444 281.2c.1 4.4-4.7 10.8-10.8 10.8s-11.5-6.5-11.2-10.9c.4-6.1 4.8-11.1 10.9-11.1 6.1.1 11 5 11.1 11.2z" fill="#DCE8F3"/>
<path d="m-452.4 289.5c.6-1 1.5-2.3 2-4.1h3.1c-.9 1.9-2.8 3.5-5.1 4.1zm-10.6-4h3.1c.6 1.8 1.4 3.1 2 4.1-2.1-.7-4-2.3-5.1-4.1zm-.8-7.5h3.5c-.2 1-.3 2.1-.3 3s.1 2 .3 3h-3.5c-.3-1-.4-2.1-.4-3s.1-2 .4-3zm6.1-5.7c-.6 1-1.5 2.3-2.1 4.1h-3.2c1.1-1.9 3.1-3.5 5.3-4.1zm10.7 4.1h-3.1c-.6-1.8-1.4-3.1-2.1-4.1 2 .6 4 2.2 5.2 4.1zm-8-4.6s1.7 1.8 2.8 4.5h-5.7c1.1-2.7 2.9-4.5 2.9-4.5zm-3.5 12.2c-.2-1-.3-2.1-.3-3s.1-2 .3-3h6.7c.2 1 .3 2.1.3 3s-.1 2-.3 3h-6.7zm3.5 6c-.3-.3-1.8-1.8-2.8-4.5h5.6c-1 2.7-2.6 4.2-2.8 4.5zm8.7-6h-3.5c.2-1 .3-2.1.3-3s-.1-2-.3-3h3.5c.3 1 .4 2.1.4 3s-.1 2-.4 3zm2.3-3c0-6-5-11-11-11s-11 5-11 11c0 5.8 4.7 10.7 10.6 11h.9c5.8-.3 10.5-5.1 10.5-11z" fill="#106a90"/>
</svg>
