<svg xmlns="http://www.w3.org/2000/svg" viewBox="0 0 24 24"><path fill="#106a90" d="M2.4 2.4C1.1 2.4 0 3.4 0 4.8v14.4c0 1.3 1 2.4 2.4 2.4h19.2c1.3 0 2.4-1 2.4-2.4v-12c0-1.3-1-2.4-2.4-2.4h-8.4s-1.2 0-2-.8l-.7-.8s-.9-.8-2.1-.8h-6z"/><path fill="#fff" fill-rule="evenodd" d="M24 14.6a7 7 0 0 1-7 7 7 7 0 0 1-7-7 7 7 0 0 1 7-7 7 7 0 0 1 7 7z"/><path fill="#106a90" d="m15.7 12.5-.3.2-.2 1.5-1 .5-1.3-.6c-.1 0-.3 0-.3.2l-1.1 1.9v.3l1.2 1v1l-1.2 1v.3l1 1.9.4.1 1.4-.5 1 .5.1 1.5s.1.2.3.2h2.2l.3-.2.2-1.5.9-.5 1.3.5.4-.1 1.1-2v-.3l-1.2-.9v-1.1l1.1-.9c.1 0 .2-.2.1-.3l-1.1-2h-.4l-1.3.5-1-.5-.1-1.5-.3-.2zm1 3.8a1.6 1.6 0 1 1 0 3.3 1.6 1.6 0 0 1 0-3.3z" color="#000" style="-inkscape-stroke:none;paint-order:fill markers stroke" transform="translate(.2 -3.4)"/></svg>