<svg version="1.1" viewBox="0 0 24 24" xmlns="http://www.w3.org/2000/svg"><g transform="translate(.00355 .94)"><path d="m2.4 1.46c-1.32 0-2.4 1.08-2.4 2.4v14.4c0 1.32 1.08 2.4 2.4 2.4h19.2c1.32 0 2.4-1.08 2.4-2.4v-12c0-1.32-1.08-2.4-2.4-2.4h-8.4s-1.2 9.1e-5 -2.05-0.848l-0.703-0.703s-0.85-0.85-2.05-0.85h-6z" fill="#106a90"/><path d="m21.6 4.86s1.4-0.0016 1.4 1.4v12c0 1.4-1.4 1.4-1.4 1.4h-19.2s-1.4-3.94e-4 -1.4-1.4v-13.4z" fill="#fff"/><g transform="translate(-.146 -4.83)"><path d="m15.7 12.5c-0.143 0-0.263 0.0983-0.285 0.23l-0.209 1.45c-0.329 0.143-0.649 0.318-0.934 0.516l-1.36-0.549c-0.121 0-0.263 0.0015-0.34 0.145l-1.1 1.9c-0.0659 0.121-0.0454 0.264 0.0644 0.352l1.16 0.9c-0.022 0.187-0.0312 0.362-0.0312 0.549s0.0093 0.362 0.0312 0.549l-1.16 0.9c-0.0988 0.0878-0.131 0.232-0.0644 0.352l1.1 1.9c0.0659 0.143 0.209 0.145 0.34 0.145l1.36-0.549c0.285 0.198 0.594 0.384 0.934 0.516l0.209 1.45c0.022 0.132 0.132 0.232 0.285 0.232h2.2c0.121 0 0.243-0.1 0.264-0.232l0.209-1.45c0.329-0.143 0.626-0.318 0.922-0.516l1.35 0.549c0.143 0 0.286-0.0015 0.363-0.145l1.1-1.9c0.0659-0.121 0.0324-0.264-0.0664-0.352l-1.17-0.9c0.022-0.187 0.0449-0.362 0.0449-0.549s-0.012-0.362-0.0449-0.549l1.16-0.9c0.0988-0.0878 0.132-0.232 0.0664-0.352l-1.1-1.9c-0.0659-0.143-0.21-0.145-0.352-0.145l-1.35 0.549c-0.296-0.198-0.594-0.384-0.934-0.516l-0.209-1.45c-0.011-0.132-0.133-0.23-0.254-0.23zm1.09 3.84c0.911 0 1.65 0.736 1.65 1.65s-0.736 1.65-1.65 1.65c-0.922 0-1.65-0.736-1.65-1.65s0.736-1.65 1.65-1.65z" color="#000000" fill="#00b066" stroke-linecap="square" style="-inkscape-stroke:none;paint-order:fill markers stroke"/></g></g></svg>
