<svg version="1.1" viewBox="0 0 24 24" xmlns="http://www.w3.org/2000/svg"><path d="m2.2 1.02c-1.22 0-2.2 0.977-2.2 2.2v13.2c0 1.22 0.988 2.2 2.2 2.2h8.78v-1.59h-9.39v-12.2h18.8v5l1.59 3e-7v-4.39c0-1.22-0.988-2.2-2.2-2.2h-8.78l-2.2-2.2m8.78 11c-0.143 0-0.263 0.0988-0.285 0.231l-0.209 1.45c-0.329 0.143-0.648 0.318-0.933 0.516l-1.36-0.549c-0.121 0-0.263 0-0.34 0.143l-1.1 1.9c-0.0659 0.121-0.0439 0.263 0.0659 0.351l1.16 0.9c-0.022 0.187-0.0329 0.362-0.0329 0.549s0.011 0.362 0.0329 0.549l-1.16 0.9c-0.0988 0.0878-0.132 0.231-0.0659 0.351l1.1 1.9c0.0659 0.143 0.209 0.143 0.34 0.143l1.36-0.549c0.285 0.198 0.593 0.384 0.933 0.516l0.209 1.45c0.022 0.132 0.132 0.231 0.285 0.231h2.2c0.121 0 0.242-0.0988 0.263-0.231l0.209-1.45c0.329-0.143 0.626-0.318 0.922-0.516l1.35 0.549c0.143 0 0.285 0 0.362-0.143l1.1-1.9c0.0659-0.121 0.0329-0.263-0.0659-0.351l-1.17-0.9c0.022-0.187 0.0439-0.362 0.0439-0.549s-0.011-0.362-0.0439-0.549l1.16-0.9c0.0988-0.0878 0.132-0.231 0.0659-0.351l-1.1-1.9c-0.0659-0.143-0.209-0.143-0.351-0.143l-1.35 0.549c-0.296-0.198-0.593-0.384-0.933-0.516l-0.209-1.45c-0.011-0.132-0.132-0.231-0.253-0.231m-1.1 3.84c0.911 0 1.65 0.736 1.65 1.65s-0.736 1.65-1.65 1.65c-0.922 0-1.65-0.736-1.65-1.65s0.736-1.65 1.65-1.65z" fill="#106a90" stroke-width="1.1"/></svg>
