<svg xmlns="http://www.w3.org/2000/svg" width="24" height="24">
    <path d="m1.8457 0-1.8457 1.8457-9e-7 20.309 1.8457 1.8457h20.309l1.8457-1.8457 1e-6 -20.309-1.8457-1.8457zm0.92285 2.0929h18.463l0.6755 0.6756v18.463l-0.6755 0.6755h-18.463l-0.6755-0.6755v-18.463zm2.6469 3.5697v1.5986l0.24715 0.24715h1.5986l0.24725-0.24725v-1.5984l-0.2473-0.2473h-1.5985zm3.9386-0.2472-0.2473 0.2473v1.5984l0.24725 0.24725h8.9833l0.2472-0.2472v-1.5985l-0.2473-0.2473zm-3.6914 5.5372-0.2472 0.2472v1.6006l0.24515 0.24515h1.6006l0.24725-0.24725v-1.5985l-0.24715-0.24715zm3.6914 0-0.24725 0.24725v1.5983l0.24735 0.24735h8.9832l0.2472-0.2472v-1.5985l-0.24725-0.24725zm-3.6934 5.5391-0.2452 0.2452v1.6005l0.2472 0.2472h1.5986l0.2472-0.2472v-1.5985l-0.2472-0.2472zm3.4462 0.24725v1.5984l0.24725 0.24725h8.9833l0.2472-0.2472v-1.5985l-0.2472-0.2472h-8.9833z"/>
</svg>