<svg version="1.1" viewBox="0 0 24 24" xmlns="http://www.w3.org/2000/svg">
<rect x="3.5" y="3.5" width="17" height="17" fill="none" stroke="#106a90"/>
<path d="M7,3.5C7,5.4,5.4,7,3.5,7S0,5.4,0,3.5S1.6,0,3.5,0S7,1.6,7,3.5L7,3.5z" fill="#00B066"/>
<g fill="#106a90">
<path d="m24 3.5c0 1.9-1.6 3.5-3.5 3.5s-3.5-1.6-3.5-3.5c0-2 1.6-3.5 3.5-3.5s3.5 1.6 3.5 3.5z"/>
<path d="m24 20.5c0 1.9-1.6 3.5-3.5 3.5-2 0-3.5-1.6-3.5-3.5 0-2 1.6-3.5 3.5-3.5s3.5 1.6 3.5 3.5z"/>
<path d="m7 20.5c0 1.9-1.6 3.5-3.5 3.5-2 0-3.5-1.6-3.5-3.5 0-2 1.6-3.5 3.5-3.5s3.5 1.6 3.5 3.5z"/>
</g>
</svg>
