<svg version="1.1" viewBox="0 0 16 16" xmlns="http://www.w3.org/2000/svg">
<path d="m15 13.098v-3.196c.571-.215 1-.773 1-1.402 0-.804-.696-1.5-1.5-1.5-.636 0-1.2.406-1.409 1h-5.091v5.092c-.571.203-1 .737-1 1.409 0 .803.643 1.499 1.5 1.499.629 0 1.187-.429 1.402-1h3.189c.203.571.737 1 1.408 1 .804 0 1.5-.696 1.5-1.5.001-.629-.428-1.187-.999-1.402zm-1.908-4.098c.148.419.477.757.908.909v3.183c-.419.149-.757.478-.909.909h-3.189c-.155-.414-.489-.748-.902-.903v-4.098h4.092z" fill="#106a90"/>
<g fill="#00855B">
<circle cx="8.5" cy="8.5" r="1.5"/>
<path d="m6 8.5c0-1.379 1.121-2.5 2.5-2.5.512 0 1.001.167 1.41.454h2.09l-6.05-6.454-5.95 6.454h3.025v7.059h3.975v-3.018c-.617-.463-1-1.198-1-1.995z"/>
</g>
</svg>
