<svg id="webmap" version="1.1" viewBox="-467 269 24 24" xmlns="http://www.w3.org/2000/svg">
 <polygon points="-459 292.8 -467 290.3 -467 269.2 -459 271.7" fill="#e8f6fc"/>
 <polygon points="-459 292.8 -451 290.3 -451 269.2 -459 271.7" fill="#a3dcf5"/>
 <polygon points="-443 292.8 -451 290.3 -451 269.2 -443 271.7" fill="#e8f6fc"/>
 <g fill="#1691c5">
  <path d="m-451 275.52 8 3.5113v-3.1217l-8-3.5113z"/>
  <path transform="rotate(180,-455,279.1)" d="m-451 282.39v-3.1218l-8 3.4101v3.1218z"/>
  <path d="m-459 278.93v7.7906l2.2249 5.3823 3.1856-0.99551z"/>
  <path transform="rotate(180,-455,280.25)" d="m-451 281.57v3.1218l8-0.92268v-3.1218l-4.9262 0.56816-3.0738-7.436z"/>
 </g>
 <g transform="translate(14.5,10.775)">
  <path d="m-462 269.2c-1.9 0-3.5 1.5-3.5 3.5 0 3.1 2.8 4 3.4 8.4 0 0.3 0.3 0.3 0.3 0 0.6-4.4 3.4-5.4 3.4-8.4-0.2-1.9-1.8-3.5-3.6-3.5z" fill="#106a90"/>
  <path d="m-460.6 272.8c0 0.9-0.7 1.5-1.5 1.5s-1.4-0.7-1.4-1.5c0-0.9 0.7-1.4 1.4-1.4 0.8-0.1 1.5 0.6 1.5 1.4z" fill="#fff"/>
 </g>
</svg>
