<svg xmlns="http://www.w3.org/2000/svg" viewBox="-467 269 24 24"><path fill="#d8e9f4" d="m-451 269.2 8 2.5v21.1l-8-2.5z"/><path fill="#aec8e0" d="m-451 269.2-8 2.5v21.1l8-2.5z"/><path fill="#d8e9f4" d="m-467 269.2 8 2.5v21.1l-8-2.5z"/><path fill="#55b9e5" d="m-451 285.9 8-1.2v-4.8l-8 1z"/><path fill="#4497c6" d="m-459 288.9 8-3v-5l-3.3 1.2-4.7-10.4v12.2z"/><path fill="#55b9e5" d="M-459 288.9v-17.2 12.2-12.2l-5-1.6 5 13.8-8 1v4.6z"/><path fill="#106a90" d="M-450.1 270.7a3.5 3.5 0 0 0-3.5 3.5c0 3 2.8 4 3.4 8.4 0 .3.3.3.3 0 .6-4.4 3.4-5.4 3.4-8.4-.2-2-1.8-3.5-3.6-3.5z"/><path fill="#fff" d="M-448.7 274.3c0 .9-.7 1.5-1.5 1.5s-1.4-.7-1.4-1.5c0-1 .7-1.4 1.4-1.4.8-.1 1.5.6 1.5 1.4z"/></svg>