<svg id="webmap" version="1.1" viewBox="-467 269 24 24" xmlns="http://www.w3.org/2000/svg">
 <g transform="translate(0 .2)">
  <path transform="rotate(180,-455,280.9)" d="m-459 292.8-8-2.5v-21.1l8 2.5z" fill="#d8e9f4"/>
  <path transform="rotate(180,-455,280.9)" d="m-459 292.8 8-2.5v-21.1l-8 2.5z" fill="#aec8e0"/>
  <path transform="rotate(180,-455,280.9)" d="m-443 292.8-8-2.5v-21.1l8 2.5z" fill="#d8e9f4"/>
  <path d="m-451 285.69 8-1.2v-4.8l-8 1z" fill="#55b9e5"/>
  <path d="m-459 288.69 8-3v-5l-3.3277 1.2479-4.6723-10.437v12.189z" fill="#4497c6"/>
  <path d="m-459 288.69v-17.189 12.189-12.189l-4.9948-1.5609 4.9948 13.75-8 1v4.6z" fill="#55b9e5"/>
  <path d="m-450.1 270.48c-1.9 0-3.5 1.5-3.5 3.5 0 3.1 2.8 4 3.4 8.4 0 0.3 0.3 0.3 0.3 0 0.6-4.4 3.4-5.4 3.4-8.4-0.2-1.9-1.8-3.5-3.6-3.5z" fill="#106a90"/>
  <path d="m-448.7 274.08c0 0.9-0.7 1.5-1.5 1.5s-1.4-0.7-1.4-1.5c0-0.9 0.7-1.4 1.4-1.4 0.8-0.1 1.5 0.6 1.5 1.4z" fill="#fff"/>
 </g>
</svg>
