<svg version="1.1" viewBox="-467 269 24 24" xmlns="http://www.w3.org/2000/svg">
 <path d="m-455 281v12h9.5996c1.3 0 2.4004-1.1004 2.4004-2.4004v-9.5996z" fill="#106a90"/>
 <path d="m-455 269v12h12v-9.5996c0-1.3-1.1004-2.4004-2.4004-2.4004z" fill="#d8e9f4"/>
 <path d="m-464.6 269c-1.3 0-2.4004 1.1004-2.4004 2.4004v9.5996h12l-4e-4 -9v-3z" fill="#106a90"/>
 <path d="m-467 281v9.5996c0 1.3 1.1004 2.4004 2.4004 2.4004h9.5996v-12h-9z" fill="#d8e9f4"/>
 <path d="m-462.39 271.5h14.778c2.1111 0 2.1111 2.1111 2.1111 2.1111v14.778c0 2.1111-2.1111 2.1111-2.1111 2.1111l-14.863-2e-3c-2.0256 2.6e-4 -2.0256-2.1091-2.0256-2.1091l-4e-4 -14.778s0-2.1111 2.1111-2.1111z" fill="#fff" stroke-linecap="round" stroke-linejoin="round" stroke-width="2.3222"/>
 <path d="m-462 274v14h14v-14h-7z" fill="#d8e9f4"/>
 <path d="m-457.75 282.47 1.9609 2.3594 2.75-3.5391 3.5391 4.709h-11z" fill="#106a90" stroke-linecap="round" stroke-linejoin="round" stroke-width="2.2"/>
</svg>
