<svg xmlns="http://www.w3.org/2000/svg" viewBox="-467 269 24 24"><path fill="#106a90" d="M-455 281v12h9.6c1.3 0 2.4-1.1 2.4-2.4V281z"/><path fill="#d8e9f4" d="M-455 269v12h12v-9.6c0-1.3-1.1-2.4-2.4-2.4z"/><path fill="#106a90" d="M-464.6 269a2.4 2.4 0 0 0-2.4 2.4v9.6h12v-12z"/><path fill="#d8e9f4" d="M-467 281v9.6c0 1.3 1.1 2.4 2.4 2.4h9.6v-12h-9z"/><path fill="#fff" d="M-462.4 271.5h14.8c2.1 0 2.1 2.1 2.1 2.1v14.8c0 2.1-2.1 2.1-2.1 2.1h-14.9c-2 0-2-2.1-2-2.1v-14.8s0-2.1 2.1-2.1z"/><path fill="#d8e9f4" d="M-462 274v14h14v-14h-7z"/><path fill="#106a90" d="m-457.8 282.5 2 2.3 2.8-3.5 3.5 4.7h-11z"/></svg>