<svg version="1.1" viewBox="-467 269 24 24" xmlns="http://www.w3.org/2000/svg">
 <path d="m-462 274v7 7h7 7v-7-7h-7-7zm8.9609 7.291 3.5391 4.709h-5.5-5.5l2.75-3.5293 1.9609 2.3594 0.78906-1.0156 1.9609-2.5234z" fill="#106a90"/>
 <path d="m-464.6 269c-1.3 0-2.4004 1.1004-2.4004 2.4004v9.5996h3v-7a2 2 0 0 1 2-2h7v-3z" fill="#106a90"/>
 <path d="m-455 269v3h7a2 2 0 0 1 2 2v7h3v-9.5996c0-1.3-1.1004-2.4004-2.4004-2.4004z" fill="#dce8f3"/>
 <path d="m-467 281v9.5996c0 1.3 1.1004 2.4004 2.4004 2.4004h9.5996v-3h-7a2 2 0 0 1-2-2v-7z" fill="#dce8f3"/>
 <path d="m-446 281v7a2 2 0 0 1-2 2h-7v3h9.5996c1.3 0 2.4004-1.1004 2.4004-2.4004v-9.5996z" fill="#106a90"/>
</svg>
