<svg xmlns="http://www.w3.org/2000/svg" viewBox="0 0 16 16"><path fill="#b3b9ba" d="M2.9 5a1 1 0 0 1-1-1V1a1 1 0 0 1 2 0v3c0 .6-.5 1-1 1zm4.5 0a1 1 0 0 1-1-1V1a1 1 0 0 1 2 0v3c0 .6-.5 1-1 1z"/><path fill="#dce8f3" d="M16 12h-4V8h3c.6 0 1 .5 1 1v3z"/><path fill="#106a90" d="M12 12H8V9c0-.6.5-1 1-1h3v4z"/><path fill="#dce8f3" d="M12 16v-4H8v3c0 .6.5 1 1 1h3z"/><path fill="#106a90" d="M16 15v-3h-4v4h3c.6 0 1-.5 1-1z"/><path fill="#b3b9ba" d="M6.5 12.5A.5.5 0 0 1 6 12V9.5H4V12c0 1.4 1.1 2.5 2.5 2.5v-2z"/><path fill="#ffca28" d="M6.5 9c0-1.4 1.1-2.5 2.5-2.5v-1a1 1 0 0 0 0-2H1a1 1 0 0 0 0 2v1.9a4 4 0 0 0 4 4.1l1.5-.3V9z"/></svg>