<svg version="1.1" viewBox="0 0 16 16" xmlns="http://www.w3.org/2000/svg">
<path d="M2.884 5c-.552 0-1-.448-1-1V1c0-.552.448-1 1-1s1 .448 1 1v3c0 .552-.447 1-1 1zm4.5 0c-.552 0-1-.448-1-1V1c0-.552.448-1 1-1s1 .448 1 1v3c0 .552-.447 1-1 1z" fill="#b3b9ba"/>
<path d="M16 12h-4V8h3c.55 0 1 .45 1 1v3z" fill="#dce8f3"/>
<path d="M12 12H8V9c0-.55.45-1 1-1h3v4z" fill="#106a90"/>
<path d="M12 16v-4H8v3c0 .55.45 1 1 1h3z" fill="#dce8f3"/>
<path d="m16 15v-3h-4v4h3c.55 0 1-.45 1-1z" fill="#106a90"/>
<path d="M6.5 12.5c-.276 0-.5-.224-.5-.5V9.5H4V12c0 1.378 1.122 2.5 2.5 2.5v-2z" fill="#b3b9ba"/>
<path d="M6.5 9c0-1.379 1.121-2.5 2.5-2.5v-1c.552 0 1-.448 1-1s-.448-1-1-1H1c-.552 0-1 .448-1 1s.448 1 1 1v1.862C1 9.638 2.8 11.5 5 11.5c.53 0 1.036-.11 1.5-.306V9z" fill="#ffca28"/>
</svg>
