<svg xmlns="http://www.w3.org/2000/svg" viewBox="0 0 32 32"><path fill="#1eabe6" d="M25.5 4h-19C5.3 4 4.3 4.9 4 6h20a2 2 0 0 1 2 2v20c1.1-.3 2-1.3 2-2.5v-19C28 5.1 26.9 4 25.5 4z"/><path fill="#7acdf0" d="M29.5 0h-19C9.3 0 8.3.9 8 2h20a2 2 0 0 1 2 2v20c1.1-.3 2-1.3 2-2.5v-19C32 1.1 30.9 0 29.5 0z"/><path fill="#106a90" d="M17 20.5c-.1 2.1-1 4-2.8 5.3A11.3 11.3 0 0 1 7.3 28c-.8 0-1.7 0-2.5-.2a1 1 0 0 1-.2-2c1.2-.5 1.5-1.6 2-3.4.7-2.4 1.6-5.4 6.4-5.9.8-2.6 3-5.2 7.2-8.5H2.5A2.5 2.5 0 0 0 0 10.5v19C0 30.9 1.1 32 2.5 32h19c1.4 0 2.5-1.1 2.5-2.5V15.2a16 16 0 0 1-7 5.3z"/><path fill="#1eabe6" d="M21.8 8c-4.1 3.2-7 6-7.8 8.8l2.7 2.8c2.4-.7 4.8-2.9 7.3-6v-3.1c0-1.3-1-2.3-2.2-2.5z"/></svg>