<svg enable-background="new 0 0 32 32" version="1.1" viewBox="0 0 32 32" xmlns="http://www.w3.org/2000/svg">
<path d="m25.5 4h-19c-1.209 0-2.218.859-2.45 2h19.95c1.105 0 2 .895 2 2v19.95c1.141-.232 2-1.24 2-2.45v-19c0-1.381-1.119-2.5-2.5-2.5z" fill="#1eabe6"/>
<path d="m29.5 0h-19c-1.209 0-2.218.859-2.45 2h19.95c1.105 0 2 .895 2 2v19.95c1.141-.232 2-1.24 2-2.45v-19c0-1.381-1.119-2.5-2.5-2.5z" fill="#7acdf0"/>
<path d="m17.03 20.51c-.129 2.116-1.087 3.946-2.789 5.297-1.784 1.417-4.307 2.19-6.941 2.19-.823 0-1.657-.076-2.484-.231-.424-.079-.749-.422-.807-.85-.058-.427.166-.844.554-1.032 1.208-.588 1.576-1.7 2.077-3.466.687-2.425 1.546-5.436 6.382-5.913.78-2.578 2.959-5.177 7.163-8.505h-17.685c-1.381 0-2.5 1.119-2.5 2.5v19c0 1.381 1.119 2.5 2.5 2.5h19c1.381 0 2.5-1.119 2.5-2.5v-14.297c-2.621 3.009-4.803 4.652-6.97 5.307z" fill="#106a90"/>
<path d="m21.783 8.028c-4.103 3.128-6.977 5.968-7.817 8.805l2.734 2.734c2.376-.704 4.754-2.841 7.301-5.921v-3.146c-.001-1.284-.972-2.329-2.218-2.472z" fill="#1eabe6"/>
</svg>
