<svg xmlns="http://www.w3.org/2000/svg" viewBox="0 0 16 16"><path fill="#dce8f3" d="M12 6H6V0h4.5c.8 0 1.5.7 1.5 1.5V6z"/><path fill="#106a90" d="M6 6H0V1.5C0 .7.7 0 1.5 0H6v6z"/><path fill="#dce8f3" d="M6 12V6H0v4.5c0 .8.7 1.5 1.5 1.5H6z"/><circle cx="12" cy="12" r="4" fill="#dce8f3"/><g fill="#106a90"><path d="m10.5 14.3-.5-.2c-.2 0-.2-.2-.2-.4s-.1-.1-.2-.2l-.1-.2-.3-.1c-.3 0-.2 0-.4-.2-.2-.1-.7-.3-.8-.5a4 4 0 0 0 1.9 2.9l.7-.7c.2 0 0-.3-.1-.4m3.9-.6-.5-.4c-.2-.1-.1-.4 0-.8.1-.3-.6-.5-.9-.6-.3-.1-.5-.3-1-.3-.2 0-.3 0-.5.2-.2.3-.6.2-.6.5-.1.2-.2.5.4.8.5.2.8.2.9.6 0 .5-.4 1.3 0 1.7.4.5 1.4-.4 1.5-.6l.7-.8c.2-.2.1-.3 0-.3"/><path d="m14.9 9.2-.8.4c-.4 0-.8.1-.7.3v.6l.4-.1c0-.1.1.2-.2.2H13c-.3 0-.3.1-.3.3 0 .2-.2 0-.2-.2s0-.2-.3-.3c-.3-.1-.9 0-.4.4l.5.5h.5c.3 0 .5.3.7.4.2 0 .6.1.8.3s.2.7.3 1c.1.2.6.6.8.3.2-.4.3-.6.5-.6a4 4 0 0 0-1-3.5M8.7 12l.3-.5.6-.3.2-.3-.1-.1.1-.1.2.2c.1 0 .2.1.2-.3s-.5-.5-.7-.7l-.6-.4a4 4 0 0 0-.9 2.1l.4.3c.1.1.2.3.3.1m2-2.8.5.4s.1-.2 0-.4c0-.3.1-.3.2-.4l.7-.2c.1 0 .3-.2 0-.5-.6 0-1.1.1-1.6.3v.3c-.1.3 0 .4.2.5"/><path d="M12 7V6H6v6h1a5 5 0 0 1 5-5z"/></g><path fill="#fff" d="M12 5H7V0H5v5H0v2h5v5h2V7h5z"/></svg>