<svg viewBox="0 0 24 24"><path d="M20 6h-8l-2-2H4a2 2 0 0 0-2 2v12c0 1.1.9 2 2 2h16a2 2 0 0 0 2-2V8a2 2 0 0 0-2-2zm.4 13H3.6l-.6-.6V5.6l.6-.6h6l2 2h8.8l.6.6v10.8z"/><path d="M3.4 4.3c-.4.8-.4 1.9.2 2.6.8.9 1.7 1.6 2.4 2.5.6 1.2.4 2.5.6 3.8.2.8.6 1.7.5 2.7 0 .8.6 1.4 1.2 1.9.7.7 1.7.8 2.6.5a3.8 3.8 0 0 0 2.4-2.7c0-.8.1-2 1.2-1.8 1 .1 1.7 1 1.9 2a5.8 5.8 0 0 0 2.8 3.1c.4.4 1.6 1.4 1.6.1.3-.7-.8-1.1-1.4-1.3-1.2-.2-1.8-1.5-2.3-2.5-.5-1-1-1.9-2-2.2-1-.3-2.2.2-2.2 1.3 0 .7.1 1.8-.7 2.1-.5.3-1.7 1-1.9.5-.3.4-1.2 0-1.8-.3-.6 0-.8-1.6 0-.8.5.3 1 0 .3-.3-.3 0-1.4-.4-.6-.3.7 0-1-.4-.1-.3.5.2.5-.1 0-.2-.9 0-.3-1.3-.6-1.9a10 10 0 0 0-1.1-3.7c-.2-.4-.1-1.2-.4-1 .3.5-.9 0-.2 0-.1-.5-1.2-.5-.7-1.2-.3 0-.8.2-.8-.4-.1-.4-.3-.8-.2-.3-.7-.4-.6-1.3-.4-1.9h-.3zm4.3 12c.3.3 1 1.3.3.6a.5.5 0 0 1-.3-.5zm4.6.4c-.1.9-1.1 1.1-1.8 1.3-.5.2-1.6 0-1.7-.4.7-.2 1.4 0 2-.3l1.5-.6zm-3.9.4c.4 0 0 .4 0 0zm.3.1c.5.3-.2.5 0 0zm9 0c.7.6 2.2 1 2 1.7-.7-.1-1.1-.8-1.7-1.2l-.2-.4z"/></svg>