<svg viewBox="0 0 24 24"><path d="M4 4c-.4 0-.8.1-1.1.4a2 2 0 0 0-.1 0l-.3.3a2 2 0 0 0-.2.3l-.1.3a2 2 0 0 0-.1.2l-.1.7V18a2 2 0 0 0 .4 1.2v.1h.1c.3.4.7.6 1.2.7h16.5c.4 0 .7-.2 1-.4l.4-.4a2 2 0 0 0 0-.1l.3-.4a2 2 0 0 0 0-.1l.1-1V8a2 2 0 0 0 0-.2 1.8 1.8 0 0 0-.4-1 2 2 0 0 0-1.3-.8 2 2 0 0 0-.7 0H12l-2-2H4zm-.4 3L5 8.2a5 5 0 0 1 1.6 3c0 .9 0 1.9.3 2.8.6 1 0 2.1.6 3 .7.7 1.6 1.5 2.7 1.5 1.5 0 2.9-1.4 3.2-2.9-.3-1 .6-2.3 1.7-1.6 1.1.3 1.2 1.6 1.7 2.5.5 1 1.5 1.9 2.6 2.5H3.6l-.3-.3-.2-.2V7.6l.5-.6zM5 7h15.4l.2.2.3.3.1.2v10.7c-.3.4-.7-.7-1.3-.6a3 3 0 0 1-2.1-1.6c-.7-1.2-1.1-2.8-2.6-3.2-1-.4-2.4.5-2 1.7.2 1-.7 1.8-1.6 2.1-.7.3-1.3.3-2.1.2-.6 0-1.8-1-1-1.4.2.5 1.3.3.5-.1-.4 0-1.3-.3-.4-.3-.2-.2-1-.5-.1-.3.6 0-1-.2-.7-.8 0-.9-.2-1.7-.3-2.5-.2-1-.6-1.8-1-2.7 0-.5 0-1-.4-.6-.7 0 .3-.4-.4-.6-.5 0-.4-.5-.5-.7zm2.7 9.4c.4.2.8 1.2.2.4a1 1 0 0 1-.2-.4zm4.6.3c-.2 1-1.3 1.2-2.1 1.4-.5.2-2-.5-.9-.6 1 0 1.9-.3 2.8-.7h.2zm-3.9.4c.4 0-.1.4 0 0zm.3.1c.5.2-.2.5 0 0zm9 0c.6.5 2.3 1 2 1.7-.8-.3-1.5-1-2-1.6z"/></svg>