<svg version="1.1" viewBox="0 0 24 24" xmlns="http://www.w3.org/2000/svg"><g fill="none" stroke="#106a90"><path d="m2.78 2.78c-1.07 0-1.74 0.607-2.03 1.18-0.285 0.571-0.277 1.13-0.277 1.13v13.8s-0.00775 0.556 0.277 1.13c0.285 0.571 0.955 1.18 2.03 1.18h18.4s0.556 0.0059 1.13-0.279c0.571-0.285 1.18-0.953 1.18-2.02v-11.5c0-1.07-0.607-1.74-1.18-2.02-0.571-0.285-1.13-0.279-1.13-0.279l-8.26 0.00375c-0.93-0.00272-1.63-0.673-1.63-0.673l-0.675-0.675c-0.977-0.977-2.31-0.96-2.31-0.96h-2.78z" color="#000000" stroke-linecap="square" style="paint-order:fill markers stroke"/><path d="m1.4 3.36c0.183 0.58 0.365 1.16 0.63 1.66 0.266 0.505 0.615 0.936 1.02 1.39s0.881 0.944 1.24 1.36c0.357 0.416 0.601 0.761 0.812 1.18 0.211 0.423 0.39 0.922 0.605 2.03 0.215 1.1 0.465 2.81 0.668 3.95 0.203 1.14 0.358 1.7 0.552 2.14 0.194 0.441 0.426 0.757 0.818 1.04s0.942 0.54 1.44 0.663c0.497 0.123 0.941 0.114 1.37 0.0397 0.429-0.0741 0.843-0.213 1.23-0.466 0.391-0.252 0.76-0.618 1.02-0.986 0.261-0.368 0.415-0.739 0.511-1.16 0.0966-0.422 0.136-0.896 0.22-1.28 0.0842-0.385 0.213-0.68 0.445-0.876 0.232-0.196 0.565-0.292 0.908-0.296 0.344-0.0045 0.698 0.0817 1.04 0.259s0.678 0.444 0.977 0.802c0.298 0.358 0.561 0.807 0.834 1.31s0.555 1.07 0.877 1.56c0.322 0.488 0.684 0.902 1.1 1.26s0.886 0.653 1.38 0.928c0.489 0.275 0.998 0.527 1.5 0.778" stroke-linecap="round" style="paint-order:fill markers stroke"/></g></svg>
